<svg width="524" height="348" viewBox="0 0 524 348" fill="none" xmlns="http://www.w3.org/2000/svg">
    <g opacity="0.2">
        <rect x="166.014" width="5.70492" height="5.70492" fill="#D9D9D9"/>
        <rect width="5.70492" height="5.70492" fill="#D9D9D9"/>
        <rect x="166.014" y="182.557" width="5.70492" height="5.70492" fill="#D9D9D9"/>
        <rect y="182.557" width="5.70492" height="5.70492" fill="#D9D9D9"/>
        <rect x="353.134" width="5.70492" height="5.70492" fill="#D9D9D9"/>
        <rect x="353.134" y="182.557" width="5.70492" height="5.70492" fill="#D9D9D9"/>
        <rect x="166.014" y="91.2787" width="5.70492" height="5.70492" fill="#D9D9D9"/>
        <rect y="91.2787" width="5.70492" height="5.70492" fill="#D9D9D9"/>
        <rect x="166.014" y="273.836" width="5.70492" height="5.70492" fill="#D9D9D9"/>
        <rect y="273.836" width="5.70492" height="5.70492" fill="#D9D9D9"/>
        <rect x="353.134" y="91.2787" width="5.70492" height="5.70492" fill="#D9D9D9"/>
        <rect x="353.134" y="273.836" width="5.70492" height="5.70492" fill="#D9D9D9"/>
        <rect x="259.574" width="5.70492" height="5.70492" fill="#D9D9D9"/>
        <rect x="93.5605" width="5.70492" height="5.70492" fill="#D9D9D9"/>
        <rect x="259.574" y="182.557" width="5.70492" height="5.70492" fill="#D9D9D9"/>
        <rect x="93.5605" y="182.557" width="5.70492" height="5.70492" fill="#D9D9D9"/>
        <rect x="446.695" width="5.70492" height="5.70492" fill="#D9D9D9"/>
        <rect x="446.695" y="182.557" width="5.70492" height="5.70492" fill="#D9D9D9"/>
        <rect x="259.574" y="91.2787" width="5.70492" height="5.70492" fill="#D9D9D9"/>
        <rect x="93.5605" y="91.2787" width="5.70492" height="5.70492" fill="#D9D9D9"/>
        <rect x="259.574" y="273.836" width="5.70492" height="5.70492" fill="#D9D9D9"/>
        <rect x="93.5605" y="273.836" width="5.70492" height="5.70492" fill="#D9D9D9"/>
        <rect x="446.695" y="91.2787" width="5.70492" height="5.70492" fill="#D9D9D9"/>
        <rect x="446.695" y="273.836" width="5.70492" height="5.70492" fill="#D9D9D9"/>
        <rect x="166.014" y="45.6393" width="5.70492" height="5.70492" fill="#D9D9D9"/>
        <rect y="45.6393" width="5.70492" height="5.70492" fill="#D9D9D9"/>
        <rect x="166.014" y="228.197" width="5.70492" height="5.70492" fill="#D9D9D9"/>
        <rect y="228.197" width="5.70492" height="5.70492" fill="#D9D9D9"/>
        <rect x="353.134" y="45.6393" width="5.70492" height="5.70492" fill="#D9D9D9"/>
        <rect x="353.134" y="228.197" width="5.70492" height="5.70492" fill="#D9D9D9"/>
        <rect x="166.014" y="136.918" width="5.70492" height="5.70492" fill="#D9D9D9"/>
        <rect y="136.918" width="5.70492" height="5.70492" fill="#D9D9D9"/>
        <rect x="166.014" y="319.475" width="5.70492" height="5.70492" fill="#D9D9D9"/>
        <rect y="319.475" width="5.70492" height="5.70492" fill="#D9D9D9"/>
        <rect x="353.134" y="136.918" width="5.70492" height="5.70492" fill="#D9D9D9"/>
        <rect x="353.134" y="319.475" width="5.70492" height="5.70492" fill="#D9D9D9"/>
        <rect x="259.574" y="45.6393" width="5.70492" height="5.70492" fill="#D9D9D9"/>
        <rect x="93.5605" y="45.6393" width="5.70492" height="5.70492" fill="#D9D9D9"/>
        <rect x="259.574" y="228.197" width="5.70492" height="5.70492" fill="#D9D9D9"/>
        <rect x="93.5605" y="228.197" width="5.70492" height="5.70492" fill="#D9D9D9"/>
        <rect x="446.695" y="45.6393" width="5.70492" height="5.70492" fill="#D9D9D9"/>
        <rect x="446.695" y="228.197" width="5.70492" height="5.70492" fill="#D9D9D9"/>
        <rect x="259.574" y="136.918" width="5.70492" height="5.70492" fill="#D9D9D9"/>
        <rect x="93.5605" y="136.918" width="5.70492" height="5.70492" fill="#D9D9D9"/>
        <rect x="259.574" y="319.475" width="5.70492" height="5.70492" fill="#D9D9D9"/>
        <rect x="93.5605" y="319.475" width="5.70492" height="5.70492" fill="#D9D9D9"/>
        <rect x="446.695" y="136.918" width="5.70492" height="5.70492" fill="#D9D9D9"/>
        <rect x="446.695" y="319.475" width="5.70492" height="5.70492" fill="#D9D9D9"/>
        <rect x="213.934" width="5.70492" height="5.70492" fill="#D9D9D9"/>
        <rect x="47.9219" width="5.70492" height="5.70492" fill="#D9D9D9"/>
        <rect x="213.934" y="182.557" width="5.70492" height="5.70492" fill="#D9D9D9"/>
        <rect x="47.9219" y="182.557" width="5.70492" height="5.70492" fill="#D9D9D9"/>
        <rect x="401.056" width="5.70492" height="5.70492" fill="#D9D9D9"/>
        <rect x="401.056" y="182.557" width="5.70492" height="5.70492" fill="#D9D9D9"/>
        <rect x="213.934" y="91.2787" width="5.70492" height="5.70492" fill="#D9D9D9"/>
        <rect x="47.9219" y="91.2787" width="5.70492" height="5.70492" fill="#D9D9D9"/>
        <rect x="213.934" y="273.836" width="5.70492" height="5.70492" fill="#D9D9D9"/>
        <rect x="47.9219" y="273.836" width="5.70492" height="5.70492" fill="#D9D9D9"/>
        <rect x="401.056" y="91.2787" width="5.70492" height="5.70492" fill="#D9D9D9"/>
        <rect x="401.056" y="273.836" width="5.70492" height="5.70492" fill="#D9D9D9"/>
        <rect x="307.495" width="5.70492" height="5.70492" fill="#D9D9D9"/>
        <rect x="141.482" width="5.70492" height="5.70492" fill="#D9D9D9"/>
        <rect x="307.495" y="182.557" width="5.70492" height="5.70492" fill="#D9D9D9"/>
        <rect x="141.482" y="182.557" width="5.70492" height="5.70492" fill="#D9D9D9"/>
        <rect x="494.616" width="5.70492" height="5.70492" fill="#D9D9D9"/>
        <rect x="494.616" y="182.557" width="5.70492" height="5.70492" fill="#D9D9D9"/>
        <rect x="307.495" y="91.2787" width="5.70492" height="5.70492" fill="#D9D9D9"/>
        <rect x="141.482" y="91.2787" width="5.70492" height="5.70492" fill="#D9D9D9"/>
        <rect x="307.495" y="273.836" width="5.70492" height="5.70492" fill="#D9D9D9"/>
        <rect x="141.482" y="273.836" width="5.70492" height="5.70492" fill="#D9D9D9"/>
        <rect x="494.616" y="91.2787" width="5.70492" height="5.70492" fill="#D9D9D9"/>
        <rect x="494.616" y="273.836" width="5.70492" height="5.70492" fill="#D9D9D9"/>
        <rect x="213.934" y="45.6393" width="5.70492" height="5.70492" fill="#D9D9D9"/>
        <rect x="47.9219" y="45.6393" width="5.70492" height="5.70492" fill="#D9D9D9"/>
        <rect x="213.934" y="228.197" width="5.70492" height="5.70492" fill="#D9D9D9"/>
        <rect x="47.9219" y="228.197" width="5.70492" height="5.70492" fill="#D9D9D9"/>
        <rect x="401.056" y="45.6393" width="5.70492" height="5.70492" fill="#D9D9D9"/>
        <rect x="401.056" y="228.197" width="5.70492" height="5.70492" fill="#D9D9D9"/>
        <rect x="213.934" y="136.918" width="5.70492" height="5.70492" fill="#D9D9D9"/>
        <rect x="47.9219" y="136.918" width="5.70492" height="5.70492" fill="#D9D9D9"/>
        <rect x="213.934" y="319.475" width="5.70492" height="5.70492" fill="#D9D9D9"/>
        <rect x="47.9219" y="319.475" width="5.70492" height="5.70492" fill="#D9D9D9"/>
        <rect x="401.056" y="136.918" width="5.70492" height="5.70492" fill="#D9D9D9"/>
        <rect x="401.056" y="319.475" width="5.70492" height="5.70492" fill="#D9D9D9"/>
        <rect x="307.495" y="45.6393" width="5.70492" height="5.70492" fill="#D9D9D9"/>
        <rect x="141.482" y="45.6393" width="5.70492" height="5.70492" fill="#D9D9D9"/>
        <rect x="307.495" y="228.197" width="5.70492" height="5.70492" fill="#D9D9D9"/>
        <rect x="141.482" y="228.197" width="5.70492" height="5.70492" fill="#D9D9D9"/>
        <rect x="494.616" y="45.6393" width="5.70492" height="5.70492" fill="#D9D9D9"/>
        <rect x="494.616" y="228.197" width="5.70492" height="5.70492" fill="#D9D9D9"/>
        <rect x="307.495" y="136.918" width="5.70492" height="5.70492" fill="#D9D9D9"/>
        <rect x="141.482" y="136.918" width="5.70492" height="5.70492" fill="#D9D9D9"/>
        <rect x="307.495" y="319.475" width="5.70492" height="5.70492" fill="#D9D9D9"/>
        <rect x="141.482" y="319.475" width="5.70492" height="5.70492" fill="#D9D9D9"/>
        <rect x="494.616" y="136.918" width="5.70492" height="5.70492" fill="#D9D9D9"/>
        <rect x="494.616" y="319.475" width="5.70492" height="5.70492" fill="#D9D9D9"/>
        <rect x="166.014" y="22.8197" width="5.70492" height="5.70492" fill="#D9D9D9"/>
        <rect y="22.8197" width="5.70492" height="5.70492" fill="#D9D9D9"/>
        <rect x="166.014" y="205.377" width="5.70492" height="5.70492" fill="#D9D9D9"/>
        <rect y="205.377" width="5.70492" height="5.70492" fill="#D9D9D9"/>
        <rect x="353.134" y="22.8197" width="5.70492" height="5.70492" fill="#D9D9D9"/>
        <rect x="353.134" y="205.377" width="5.70492" height="5.70492" fill="#D9D9D9"/>
        <rect x="166.014" y="114.098" width="5.70492" height="5.70492" fill="#D9D9D9"/>
        <rect y="114.098" width="5.70492" height="5.70492" fill="#D9D9D9"/>
        <rect x="166.014" y="296.656" width="5.70492" height="5.70492" fill="#D9D9D9"/>
        <rect y="296.656" width="5.70492" height="5.70492" fill="#D9D9D9"/>
        <rect x="353.134" y="114.098" width="5.70492" height="5.70492" fill="#D9D9D9"/>
        <rect x="353.134" y="296.656" width="5.70492" height="5.70492" fill="#D9D9D9"/>
        <rect x="259.574" y="22.8197" width="5.70492" height="5.70492" fill="#D9D9D9"/>
        <rect x="93.5605" y="22.8197" width="5.70492" height="5.70492" fill="#D9D9D9"/>
        <rect x="259.574" y="205.377" width="5.70492" height="5.70492" fill="#D9D9D9"/>
        <rect x="93.5605" y="205.377" width="5.70492" height="5.70492" fill="#D9D9D9"/>
        <rect x="446.695" y="22.8197" width="5.70492" height="5.70492" fill="#D9D9D9"/>
        <rect x="446.695" y="205.377" width="5.70492" height="5.70492" fill="#D9D9D9"/>
        <rect x="259.574" y="114.098" width="5.70492" height="5.70492" fill="#D9D9D9"/>
        <rect x="93.5605" y="114.098" width="5.70492" height="5.70492" fill="#D9D9D9"/>
        <rect x="259.574" y="296.656" width="5.70492" height="5.70492" fill="#D9D9D9"/>
        <rect x="93.5605" y="296.656" width="5.70492" height="5.70492" fill="#D9D9D9"/>
        <rect x="446.695" y="114.098" width="5.70492" height="5.70492" fill="#D9D9D9"/>
        <rect x="446.695" y="296.656" width="5.70492" height="5.70492" fill="#D9D9D9"/>
        <rect x="166.014" y="68.459" width="5.70492" height="5.70492" fill="#D9D9D9"/>
        <rect y="68.459" width="5.70492" height="5.70492" fill="#D9D9D9"/>
        <rect x="166.014" y="251.016" width="5.70492" height="5.70492" fill="#D9D9D9"/>
        <rect y="251.016" width="5.70492" height="5.70492" fill="#D9D9D9"/>
        <rect x="353.134" y="68.459" width="5.70492" height="5.70492" fill="#D9D9D9"/>
        <rect x="353.134" y="251.016" width="5.70492" height="5.70492" fill="#D9D9D9"/>
        <rect x="166.014" y="159.738" width="5.70492" height="5.70492" fill="#D9D9D9"/>
        <rect y="159.738" width="5.70492" height="5.70492" fill="#D9D9D9"/>
        <rect x="166.014" y="342.295" width="5.70492" height="5.70492" fill="#D9D9D9"/>
        <rect y="342.295" width="5.70492" height="5.70492" fill="#D9D9D9"/>
        <rect x="353.134" y="159.738" width="5.70492" height="5.70492" fill="#D9D9D9"/>
        <rect x="353.134" y="342.295" width="5.70492" height="5.70492" fill="#D9D9D9"/>
        <rect x="259.574" y="68.459" width="5.70492" height="5.70492" fill="#D9D9D9"/>
        <rect x="93.5605" y="68.459" width="5.70492" height="5.70492" fill="#D9D9D9"/>
        <rect x="259.574" y="251.016" width="5.70492" height="5.70492" fill="#D9D9D9"/>
        <rect x="93.5605" y="251.016" width="5.70492" height="5.70492" fill="#D9D9D9"/>
        <rect x="446.695" y="68.459" width="5.70492" height="5.70492" fill="#D9D9D9"/>
        <rect x="446.695" y="251.016" width="5.70492" height="5.70492" fill="#D9D9D9"/>
        <rect x="259.574" y="159.738" width="5.70492" height="5.70492" fill="#D9D9D9"/>
        <rect x="93.5605" y="159.738" width="5.70492" height="5.70492" fill="#D9D9D9"/>
        <rect x="259.574" y="342.295" width="5.70492" height="5.70492" fill="#D9D9D9"/>
        <rect x="93.5605" y="342.295" width="5.70492" height="5.70492" fill="#D9D9D9"/>
        <rect x="446.695" y="159.738" width="5.70492" height="5.70492" fill="#D9D9D9"/>
        <rect x="446.695" y="342.295" width="5.70492" height="5.70492" fill="#D9D9D9"/>
        <rect x="213.934" y="22.8197" width="5.70492" height="5.70492" fill="#D9D9D9"/>
        <rect x="47.9219" y="22.8197" width="5.70492" height="5.70492" fill="#D9D9D9"/>
        <rect x="213.934" y="205.377" width="5.70492" height="5.70492" fill="#D9D9D9"/>
        <rect x="47.9219" y="205.377" width="5.70492" height="5.70492" fill="#D9D9D9"/>
        <rect x="401.056" y="22.8197" width="5.70492" height="5.70492" fill="#D9D9D9"/>
        <rect x="401.056" y="205.377" width="5.70492" height="5.70492" fill="#D9D9D9"/>
        <rect x="213.934" y="114.098" width="5.70492" height="5.70492" fill="#D9D9D9"/>
        <rect x="47.9219" y="114.098" width="5.70492" height="5.70492" fill="#D9D9D9"/>
        <rect x="213.934" y="296.656" width="5.70492" height="5.70492" fill="#D9D9D9"/>
        <rect x="47.9219" y="296.656" width="5.70492" height="5.70492" fill="#D9D9D9"/>
        <rect x="401.056" y="114.098" width="5.70492" height="5.70492" fill="#D9D9D9"/>
        <rect x="401.056" y="296.656" width="5.70492" height="5.70492" fill="#D9D9D9"/>
        <rect x="307.495" y="22.8197" width="5.70492" height="5.70492" fill="#D9D9D9"/>
        <rect x="141.482" y="22.8197" width="5.70492" height="5.70492" fill="#D9D9D9"/>
        <rect x="307.495" y="205.377" width="5.70492" height="5.70492" fill="#D9D9D9"/>
        <rect x="141.482" y="205.377" width="5.70492" height="5.70492" fill="#D9D9D9"/>
        <rect x="494.616" y="22.8197" width="5.70492" height="5.70492" fill="#D9D9D9"/>
        <rect x="494.616" y="205.377" width="5.70492" height="5.70492" fill="#D9D9D9"/>
        <rect x="307.495" y="114.098" width="5.70492" height="5.70492" fill="#D9D9D9"/>
        <rect x="141.482" y="114.098" width="5.70492" height="5.70492" fill="#D9D9D9"/>
        <rect x="307.495" y="296.656" width="5.70492" height="5.70492" fill="#D9D9D9"/>
        <rect x="141.482" y="296.656" width="5.70492" height="5.70492" fill="#D9D9D9"/>
        <rect x="494.616" y="114.098" width="5.70492" height="5.70492" fill="#D9D9D9"/>
        <rect x="494.616" y="296.656" width="5.70492" height="5.70492" fill="#D9D9D9"/>
        <rect x="213.934" y="68.459" width="5.70492" height="5.70492" fill="#D9D9D9"/>
        <rect x="47.9219" y="68.459" width="5.70492" height="5.70492" fill="#D9D9D9"/>
        <rect x="213.934" y="251.016" width="5.70492" height="5.70492" fill="#D9D9D9"/>
        <rect x="47.9219" y="251.016" width="5.70492" height="5.70492" fill="#D9D9D9"/>
        <rect x="401.056" y="68.459" width="5.70492" height="5.70492" fill="#D9D9D9"/>
        <rect x="401.056" y="251.016" width="5.70492" height="5.70492" fill="#D9D9D9"/>
        <rect x="213.934" y="159.738" width="5.70492" height="5.70492" fill="#D9D9D9"/>
        <rect x="47.9219" y="159.738" width="5.70492" height="5.70492" fill="#D9D9D9"/>
        <rect x="213.934" y="342.295" width="5.70492" height="5.70492" fill="#D9D9D9"/>
        <rect x="47.9219" y="342.295" width="5.70492" height="5.70492" fill="#D9D9D9"/>
        <rect x="401.056" y="159.738" width="5.70492" height="5.70492" fill="#D9D9D9"/>
        <rect x="401.056" y="342.295" width="5.70492" height="5.70492" fill="#D9D9D9"/>
        <rect x="307.495" y="68.459" width="5.70492" height="5.70492" fill="#D9D9D9"/>
        <rect x="141.482" y="68.459" width="5.70492" height="5.70492" fill="#D9D9D9"/>
        <rect x="307.495" y="251.016" width="5.70492" height="5.70492" fill="#D9D9D9"/>
        <rect x="141.482" y="251.016" width="5.70492" height="5.70492" fill="#D9D9D9"/>
        <rect x="494.616" y="68.459" width="5.70492" height="5.70492" fill="#D9D9D9"/>
        <rect x="494.616" y="251.016" width="5.70492" height="5.70492" fill="#D9D9D9"/>
        <rect x="307.495" y="159.738" width="5.70492" height="5.70492" fill="#D9D9D9"/>
        <rect x="141.482" y="159.738" width="5.70492" height="5.70492" fill="#D9D9D9"/>
        <rect x="307.495" y="342.295" width="5.70492" height="5.70492" fill="#D9D9D9"/>
        <rect x="141.482" y="342.295" width="5.70492" height="5.70492" fill="#D9D9D9"/>
        <rect x="494.616" y="159.738" width="5.70492" height="5.70492" fill="#D9D9D9"/>
        <rect x="494.616" y="342.295" width="5.70492" height="5.70492" fill="#D9D9D9"/>
        <rect x="190.545" width="5.70492" height="5.70492" fill="#D9D9D9"/>
        <rect x="24.5312" width="5.70492" height="5.70492" fill="#D9D9D9"/>
        <rect x="190.545" y="182.557" width="5.70492" height="5.70492" fill="#D9D9D9"/>
        <rect x="24.5312" y="182.557" width="5.70492" height="5.70492" fill="#D9D9D9"/>
        <rect x="377.665" width="5.70492" height="5.70492" fill="#D9D9D9"/>
        <rect x="377.665" y="182.557" width="5.70492" height="5.70492" fill="#D9D9D9"/>
        <rect x="190.545" y="91.2787" width="5.70492" height="5.70492" fill="#D9D9D9"/>
        <rect x="24.5312" y="91.2787" width="5.70492" height="5.70492" fill="#D9D9D9"/>
        <rect x="190.545" y="273.836" width="5.70492" height="5.70492" fill="#D9D9D9"/>
        <rect x="24.5312" y="273.836" width="5.70492" height="5.70492" fill="#D9D9D9"/>
        <rect x="377.665" y="91.2787" width="5.70492" height="5.70492" fill="#D9D9D9"/>
        <rect x="377.665" y="273.836" width="5.70492" height="5.70492" fill="#D9D9D9"/>
        <rect x="284.105" width="5.70492" height="5.70492" fill="#D9D9D9"/>
        <rect x="118.092" width="5.70492" height="5.70492" fill="#D9D9D9"/>
        <rect x="284.105" y="182.557" width="5.70492" height="5.70492" fill="#D9D9D9"/>
        <rect x="118.092" y="182.557" width="5.70492" height="5.70492" fill="#D9D9D9"/>
        <rect x="471.227" width="5.70492" height="5.70492" fill="#D9D9D9"/>
        <rect x="471.227" y="182.557" width="5.70492" height="5.70492" fill="#D9D9D9"/>
        <rect x="284.105" y="91.2787" width="5.70492" height="5.70492" fill="#D9D9D9"/>
        <rect x="118.092" y="91.2787" width="5.70492" height="5.70492" fill="#D9D9D9"/>
        <rect x="284.105" y="273.836" width="5.70492" height="5.70492" fill="#D9D9D9"/>
        <rect x="118.092" y="273.836" width="5.70492" height="5.70492" fill="#D9D9D9"/>
        <rect x="471.227" y="91.2787" width="5.70492" height="5.70492" fill="#D9D9D9"/>
        <rect x="471.227" y="273.836" width="5.70492" height="5.70492" fill="#D9D9D9"/>
        <rect x="190.545" y="45.6393" width="5.70492" height="5.70492" fill="#D9D9D9"/>
        <rect x="24.5312" y="45.6393" width="5.70492" height="5.70492" fill="#D9D9D9"/>
        <rect x="190.545" y="228.197" width="5.70492" height="5.70492" fill="#D9D9D9"/>
        <rect x="24.5312" y="228.197" width="5.70492" height="5.70492" fill="#D9D9D9"/>
        <rect x="377.665" y="45.6393" width="5.70492" height="5.70492" fill="#D9D9D9"/>
        <rect x="377.665" y="228.197" width="5.70492" height="5.70492" fill="#D9D9D9"/>
        <rect x="190.545" y="136.918" width="5.70492" height="5.70492" fill="#D9D9D9"/>
        <rect x="24.5312" y="136.918" width="5.70492" height="5.70492" fill="#D9D9D9"/>
        <rect x="190.545" y="319.475" width="5.70492" height="5.70492" fill="#D9D9D9"/>
        <rect x="24.5312" y="319.475" width="5.70492" height="5.70492" fill="#D9D9D9"/>
        <rect x="377.665" y="136.918" width="5.70492" height="5.70492" fill="#D9D9D9"/>
        <rect x="377.665" y="319.475" width="5.70492" height="5.70492" fill="#D9D9D9"/>
        <rect x="284.105" y="45.6393" width="5.70492" height="5.70492" fill="#D9D9D9"/>
        <rect x="118.092" y="45.6393" width="5.70492" height="5.70492" fill="#D9D9D9"/>
        <rect x="284.105" y="228.197" width="5.70492" height="5.70492" fill="#D9D9D9"/>
        <rect x="118.092" y="228.197" width="5.70492" height="5.70492" fill="#D9D9D9"/>
        <rect x="471.227" y="45.6393" width="5.70492" height="5.70492" fill="#D9D9D9"/>
        <rect x="471.227" y="228.197" width="5.70492" height="5.70492" fill="#D9D9D9"/>
        <rect x="284.105" y="136.918" width="5.70492" height="5.70492" fill="#D9D9D9"/>
        <rect x="118.092" y="136.918" width="5.70492" height="5.70492" fill="#D9D9D9"/>
        <rect x="284.105" y="319.475" width="5.70492" height="5.70492" fill="#D9D9D9"/>
        <rect x="118.092" y="319.475" width="5.70492" height="5.70492" fill="#D9D9D9"/>
        <rect x="471.227" y="136.918" width="5.70492" height="5.70492" fill="#D9D9D9"/>
        <rect x="471.227" y="319.475" width="5.70492" height="5.70492" fill="#D9D9D9"/>
        <rect x="236.754" width="5.70492" height="5.70492" fill="#D9D9D9"/>
        <rect x="70.7402" width="5.70492" height="5.70492" fill="#D9D9D9"/>
        <rect x="236.754" y="182.557" width="5.70492" height="5.70492" fill="#D9D9D9"/>
        <rect x="70.7402" y="182.557" width="5.70492" height="5.70492" fill="#D9D9D9"/>
        <rect x="423.875" width="5.70492" height="5.70492" fill="#D9D9D9"/>
        <rect x="423.875" y="182.557" width="5.70492" height="5.70492" fill="#D9D9D9"/>
        <rect x="236.754" y="91.2787" width="5.70492" height="5.70492" fill="#D9D9D9"/>
        <rect x="70.7402" y="91.2787" width="5.70492" height="5.70492" fill="#D9D9D9"/>
        <rect x="236.754" y="273.836" width="5.70492" height="5.70492" fill="#D9D9D9"/>
        <rect x="70.7402" y="273.836" width="5.70492" height="5.70492" fill="#D9D9D9"/>
        <rect x="423.875" y="91.2787" width="5.70492" height="5.70492" fill="#D9D9D9"/>
        <rect x="423.875" y="273.836" width="5.70492" height="5.70492" fill="#D9D9D9"/>
        <rect x="330.315" width="5.70492" height="5.70492" fill="#D9D9D9"/>
        <rect x="330.315" y="182.557" width="5.70492" height="5.70492" fill="#D9D9D9"/>
        <rect x="517.437" width="5.70492" height="5.70492" fill="#D9D9D9"/>
        <rect x="517.437" y="182.557" width="5.70492" height="5.70492" fill="#D9D9D9"/>
        <rect x="330.315" y="91.2787" width="5.70492" height="5.70492" fill="#D9D9D9"/>
        <rect x="330.315" y="273.836" width="5.70492" height="5.70492" fill="#D9D9D9"/>
        <rect x="517.437" y="91.2787" width="5.70492" height="5.70492" fill="#D9D9D9"/>
        <rect x="517.437" y="273.836" width="5.70492" height="5.70492" fill="#D9D9D9"/>
        <rect x="236.754" y="45.6393" width="5.70492" height="5.70492" fill="#D9D9D9"/>
        <rect x="70.7402" y="45.6393" width="5.70492" height="5.70492" fill="#D9D9D9"/>
        <rect x="236.754" y="228.197" width="5.70492" height="5.70492" fill="#D9D9D9"/>
        <rect x="70.7402" y="228.197" width="5.70492" height="5.70492" fill="#D9D9D9"/>
        <rect x="423.875" y="45.6393" width="5.70492" height="5.70492" fill="#D9D9D9"/>
        <rect x="423.875" y="228.197" width="5.70492" height="5.70492" fill="#D9D9D9"/>
        <rect x="236.754" y="136.918" width="5.70492" height="5.70492" fill="#D9D9D9"/>
        <rect x="70.7402" y="136.918" width="5.70492" height="5.70492" fill="#D9D9D9"/>
        <rect x="236.754" y="319.475" width="5.70492" height="5.70492" fill="#D9D9D9"/>
        <rect x="70.7402" y="319.475" width="5.70492" height="5.70492" fill="#D9D9D9"/>
        <rect x="423.875" y="136.918" width="5.70492" height="5.70492" fill="#D9D9D9"/>
        <rect x="423.875" y="319.475" width="5.70492" height="5.70492" fill="#D9D9D9"/>
        <rect x="330.315" y="45.6393" width="5.70492" height="5.70492" fill="#D9D9D9"/>
        <rect x="330.315" y="228.197" width="5.70492" height="5.70492" fill="#D9D9D9"/>
        <rect x="517.437" y="45.6393" width="5.70492" height="5.70492" fill="#D9D9D9"/>
        <rect x="517.437" y="228.197" width="5.70492" height="5.70492" fill="#D9D9D9"/>
        <rect x="330.315" y="136.918" width="5.70492" height="5.70492" fill="#D9D9D9"/>
        <rect x="330.315" y="319.475" width="5.70492" height="5.70492" fill="#D9D9D9"/>
        <rect x="517.437" y="136.918" width="5.70492" height="5.70492" fill="#D9D9D9"/>
        <rect x="517.437" y="319.475" width="5.70492" height="5.70492" fill="#D9D9D9"/>
        <rect x="190.545" y="22.8197" width="5.70492" height="5.70492" fill="#D9D9D9"/>
        <rect x="24.5312" y="22.8197" width="5.70492" height="5.70492" fill="#D9D9D9"/>
        <rect x="190.545" y="205.377" width="5.70492" height="5.70492" fill="#D9D9D9"/>
        <rect x="24.5312" y="205.377" width="5.70492" height="5.70492" fill="#D9D9D9"/>
        <rect x="377.665" y="22.8197" width="5.70492" height="5.70492" fill="#D9D9D9"/>
        <rect x="377.665" y="205.377" width="5.70492" height="5.70492" fill="#D9D9D9"/>
        <rect x="190.545" y="114.098" width="5.70492" height="5.70492" fill="#D9D9D9"/>
        <rect x="24.5312" y="114.098" width="5.70492" height="5.70492" fill="#D9D9D9"/>
        <rect x="190.545" y="296.656" width="5.70492" height="5.70492" fill="#D9D9D9"/>
        <rect x="24.5312" y="296.656" width="5.70492" height="5.70492" fill="#D9D9D9"/>
        <rect x="377.665" y="114.098" width="5.70492" height="5.70492" fill="#D9D9D9"/>
        <rect x="377.665" y="296.656" width="5.70492" height="5.70492" fill="#D9D9D9"/>
        <rect x="284.105" y="22.8197" width="5.70492" height="5.70492" fill="#D9D9D9"/>
        <rect x="118.092" y="22.8197" width="5.70492" height="5.70492" fill="#D9D9D9"/>
        <rect x="284.105" y="205.377" width="5.70492" height="5.70492" fill="#D9D9D9"/>
        <rect x="118.092" y="205.377" width="5.70492" height="5.70492" fill="#D9D9D9"/>
        <rect x="471.227" y="22.8197" width="5.70492" height="5.70492" fill="#D9D9D9"/>
        <rect x="471.227" y="205.377" width="5.70492" height="5.70492" fill="#D9D9D9"/>
        <rect x="284.105" y="114.098" width="5.70492" height="5.70492" fill="#D9D9D9"/>
        <rect x="118.092" y="114.098" width="5.70492" height="5.70492" fill="#D9D9D9"/>
        <rect x="284.105" y="296.656" width="5.70492" height="5.70492" fill="#D9D9D9"/>
        <rect x="118.092" y="296.656" width="5.70492" height="5.70492" fill="#D9D9D9"/>
        <rect x="471.227" y="114.098" width="5.70492" height="5.70492" fill="#D9D9D9"/>
        <rect x="471.227" y="296.656" width="5.70492" height="5.70492" fill="#D9D9D9"/>
        <rect x="190.545" y="68.459" width="5.70492" height="5.70492" fill="#D9D9D9"/>
        <rect x="24.5312" y="68.459" width="5.70492" height="5.70492" fill="#D9D9D9"/>
        <rect x="190.545" y="251.016" width="5.70492" height="5.70492" fill="#D9D9D9"/>
        <rect x="24.5312" y="251.016" width="5.70492" height="5.70492" fill="#D9D9D9"/>
        <rect x="377.665" y="68.459" width="5.70492" height="5.70492" fill="#D9D9D9"/>
        <rect x="377.665" y="251.016" width="5.70492" height="5.70492" fill="#D9D9D9"/>
        <rect x="190.545" y="159.738" width="5.70492" height="5.70492" fill="#D9D9D9"/>
        <rect x="24.5312" y="159.738" width="5.70492" height="5.70492" fill="#D9D9D9"/>
        <rect x="190.545" y="342.295" width="5.70492" height="5.70492" fill="#D9D9D9"/>
        <rect x="24.5312" y="342.295" width="5.70492" height="5.70492" fill="#D9D9D9"/>
        <rect x="377.665" y="159.738" width="5.70492" height="5.70492" fill="#D9D9D9"/>
        <rect x="377.665" y="342.295" width="5.70492" height="5.70492" fill="#D9D9D9"/>
        <rect x="284.105" y="68.459" width="5.70492" height="5.70492" fill="#D9D9D9"/>
        <rect x="118.092" y="68.459" width="5.70492" height="5.70492" fill="#D9D9D9"/>
        <rect x="284.105" y="251.016" width="5.70492" height="5.70492" fill="#D9D9D9"/>
        <rect x="118.092" y="251.016" width="5.70492" height="5.70492" fill="#D9D9D9"/>
        <rect x="471.227" y="68.459" width="5.70492" height="5.70492" fill="#D9D9D9"/>
        <rect x="471.227" y="251.016" width="5.70492" height="5.70492" fill="#D9D9D9"/>
        <rect x="284.105" y="159.738" width="5.70492" height="5.70492" fill="#D9D9D9"/>
        <rect x="118.092" y="159.738" width="5.70492" height="5.70492" fill="#D9D9D9"/>
        <rect x="284.105" y="342.295" width="5.70492" height="5.70492" fill="#D9D9D9"/>
        <rect x="118.092" y="342.295" width="5.70492" height="5.70492" fill="#D9D9D9"/>
        <rect x="471.227" y="159.738" width="5.70492" height="5.70492" fill="#D9D9D9"/>
        <rect x="471.227" y="342.295" width="5.70492" height="5.70492" fill="#D9D9D9"/>
        <rect x="236.754" y="22.8197" width="5.70492" height="5.70492" fill="#D9D9D9"/>
        <rect x="70.7402" y="22.8197" width="5.70492" height="5.70492" fill="#D9D9D9"/>
        <rect x="236.754" y="205.377" width="5.70492" height="5.70492" fill="#D9D9D9"/>
        <rect x="70.7402" y="205.377" width="5.70492" height="5.70492" fill="#D9D9D9"/>
        <rect x="423.875" y="22.8197" width="5.70492" height="5.70492" fill="#D9D9D9"/>
        <rect x="423.875" y="205.377" width="5.70492" height="5.70492" fill="#D9D9D9"/>
        <rect x="236.754" y="114.098" width="5.70492" height="5.70492" fill="#D9D9D9"/>
        <rect x="70.7402" y="114.098" width="5.70492" height="5.70492" fill="#D9D9D9"/>
        <rect x="236.754" y="296.656" width="5.70492" height="5.70492" fill="#D9D9D9"/>
        <rect x="70.7402" y="296.656" width="5.70492" height="5.70492" fill="#D9D9D9"/>
        <rect x="423.875" y="114.098" width="5.70492" height="5.70492" fill="#D9D9D9"/>
        <rect x="423.875" y="296.656" width="5.70492" height="5.70492" fill="#D9D9D9"/>
        <rect x="330.315" y="22.8197" width="5.70492" height="5.70492" fill="#D9D9D9"/>
        <rect x="330.315" y="205.377" width="5.70492" height="5.70492" fill="#D9D9D9"/>
        <rect x="517.437" y="22.8197" width="5.70492" height="5.70492" fill="#D9D9D9"/>
        <rect x="517.437" y="205.377" width="5.70492" height="5.70492" fill="#D9D9D9"/>
        <rect x="330.315" y="114.098" width="5.70492" height="5.70492" fill="#D9D9D9"/>
        <rect x="330.315" y="296.656" width="5.70492" height="5.70492" fill="#D9D9D9"/>
        <rect x="517.437" y="114.098" width="5.70492" height="5.70492" fill="#D9D9D9"/>
        <rect x="517.437" y="296.656" width="5.70492" height="5.70492" fill="#D9D9D9"/>
        <rect x="236.754" y="68.459" width="5.70492" height="5.70492" fill="#D9D9D9"/>
        <rect x="70.7402" y="68.459" width="5.70492" height="5.70492" fill="#D9D9D9"/>
        <rect x="236.754" y="251.016" width="5.70492" height="5.70492" fill="#D9D9D9"/>
        <rect x="70.7402" y="251.016" width="5.70492" height="5.70492" fill="#D9D9D9"/>
        <rect x="423.875" y="68.459" width="5.70492" height="5.70492" fill="#D9D9D9"/>
        <rect x="423.875" y="251.016" width="5.70492" height="5.70492" fill="#D9D9D9"/>
        <rect x="236.754" y="159.738" width="5.70492" height="5.70492" fill="#D9D9D9"/>
        <rect x="70.7402" y="159.738" width="5.70492" height="5.70492" fill="#D9D9D9"/>
        <rect x="236.754" y="342.295" width="5.70492" height="5.70492" fill="#D9D9D9"/>
        <rect x="70.7402" y="342.295" width="5.70492" height="5.70492" fill="#D9D9D9"/>
        <rect x="423.875" y="159.738" width="5.70492" height="5.70492" fill="#D9D9D9"/>
        <rect x="423.875" y="342.295" width="5.70492" height="5.70492" fill="#D9D9D9"/>
        <rect x="330.315" y="68.459" width="5.70492" height="5.70492" fill="#D9D9D9"/>
        <rect x="330.315" y="251.016" width="5.70492" height="5.70492" fill="#D9D9D9"/>
        <rect x="517.437" y="68.459" width="5.70492" height="5.70492" fill="#D9D9D9"/>
        <rect x="517.437" y="251.016" width="5.70492" height="5.70492" fill="#D9D9D9"/>
        <rect x="330.315" y="159.738" width="5.70492" height="5.70492" fill="#D9D9D9"/>
        <rect x="330.315" y="342.295" width="5.70492" height="5.70492" fill="#D9D9D9"/>
        <rect x="517.437" y="159.738" width="5.70492" height="5.70492" fill="#D9D9D9"/>
        <rect x="517.437" y="342.295" width="5.70492" height="5.70492" fill="#D9D9D9"/>
    </g>
</svg>
