<svg width="29" height="21" viewBox="0 0 29 21" fill="none" xmlns="http://www.w3.org/2000/svg">
    <path d="M27.6901 3.90414C27.3738 2.72439 26.4457 1.79351 25.2673 1.47589C23.1141 0.884635 14.4997 0.87501 14.4997 0.87501C14.4997 0.87501 5.88672 0.865385 3.7321 1.43051C2.5771 1.74539 1.62285 2.69689 1.30385 3.87526C0.735971 6.02851 0.730471 10.4945 0.730471 10.4945C0.730471 10.4945 0.724971 14.9825 1.28872 17.1138C1.60497 18.2921 2.5331 19.223 3.71285 19.5406C5.8881 20.1319 14.4791 20.1415 14.4791 20.1415C14.4791 20.1415 23.0935 20.1511 25.2467 19.5874C26.4237 19.2711 27.356 18.3416 27.6763 17.1633C28.2456 15.0114 28.2497 10.5468 28.2497 10.5468C28.2497 10.5468 28.2772 6.05739 27.6901 3.90414ZM11.7442 14.6319L11.7511 6.38189L18.9107 10.5138L11.7442 14.6319Z" fill="white"/>
</svg>
