<svg width="21" height="24" viewBox="0 0 21 24" fill="none" xmlns="http://www.w3.org/2000/svg">
    <path d="M17.4439 3.34868C15.6208 1.52553 13.1968 0.521484 10.6185 0.521484C8.04019 0.521484 5.61617 1.52553 3.79306 3.34868C1.96987 5.17188 0.96582 7.59586 0.96582 10.1741C0.96582 15.3899 5.89757 19.7282 8.5471 22.0589C8.91524 22.3827 9.23319 22.6624 9.48642 22.899C9.80384 23.1956 10.2111 23.3438 10.6184 23.3438C11.0258 23.3438 11.4331 23.1955 11.7505 22.899C12.0038 22.6624 12.3217 22.3828 12.6898 22.0589C15.3394 19.7282 20.2711 15.39 20.2711 10.1742C20.2711 7.59586 19.2671 5.17188 17.4439 3.34868ZM10.6185 14.0632C8.27292 14.0632 6.36472 12.155 6.36472 9.80939C6.36472 7.46383 8.27292 5.55562 10.6185 5.55562C12.9641 5.55562 14.8723 7.46383 14.8723 9.80939C14.8723 12.155 12.964 14.0632 10.6185 14.0632Z" fill="white"/>
</svg>
