<svg width="26" height="20" viewBox="0 0 26 20" fill="none" xmlns="http://www.w3.org/2000/svg">
    <path d="M24.8432 2.23145L17.5371 10.1386L24.8432 18.0457C24.9752 17.745 25.0554 17.4126 25.0554 17.0576V3.21954C25.0554 2.86451 24.9752 2.53214 24.8432 2.23145Z" fill="white"/>
    <path d="M22.9385 0.913086H3.08288C2.75696 0.913086 2.45183 1.00037 2.17578 1.14423L11.5137 11.2646C12.3393 12.164 13.682 12.164 14.5077 11.2646L23.8456 1.14423C23.5695 1.00037 23.2644 0.913086 22.9385 0.913086Z" fill="white"/>
    <path d="M1.17802 2.23145C1.04595 2.53214 0.96582 2.86451 0.96582 3.21954V17.0576C0.96582 17.4126 1.04595 17.7451 1.17802 18.0457L8.48408 10.1386L1.17802 2.23145Z" fill="white"/>
    <path d="M16.5395 11.2256L15.5057 12.3517C14.1299 13.8503 11.8914 13.8503 10.5156 12.3517L9.48184 11.2256L2.17578 19.1327C2.45183 19.2766 2.75696 19.3639 3.08288 19.3639H22.9385C23.2644 19.3639 23.5695 19.2766 23.8456 19.1327L16.5395 11.2256Z" fill="white"/>
</svg>
