<svg width="47" height="60" viewBox="0 0 47 60" fill="none" xmlns="http://www.w3.org/2000/svg">
    <path d="M22.3298 31.6435H20.0477V30.4135H22.3298C22.7272 30.4135 23.0483 30.3475 23.2932 30.2157C23.5381 30.0838 23.7167 29.9025 23.8291 29.6717C23.9455 29.4368 24.0037 29.169 24.0037 28.8681C24.0037 28.5838 23.9455 28.318 23.8291 28.0707C23.7167 27.8194 23.5381 27.6174 23.2932 27.465C23.0483 27.3125 22.7272 27.2363 22.3298 27.2363H20.5114V35H19V26H22.3298C23.0082 26 23.5842 26.1236 24.0579 26.3709C24.5356 26.614 24.8989 26.9519 25.1478 27.3846C25.3966 27.8132 25.5211 28.3036 25.5211 28.8558C25.5211 29.4368 25.3966 29.9354 25.1478 30.3516C24.8989 30.7679 24.5356 31.0872 24.0579 31.3098C23.5842 31.5323 23.0082 31.6435 22.3298 31.6435Z" fill="white"/>
    <path d="M30.1628 35H28.2902L28.3022 33.7699H30.1628C30.7047 33.7699 31.1583 33.6484 31.5236 33.4052C31.8929 33.1621 32.1699 32.8139 32.3546 32.3606C32.5432 31.9073 32.6376 31.3674 32.6376 30.7411V30.2527C32.6376 29.7665 32.5834 29.3359 32.475 28.9609C32.3706 28.5859 32.2141 28.2706 32.0053 28.0151C31.8006 27.7596 31.5477 27.5659 31.2466 27.4341C30.9496 27.3022 30.6064 27.2363 30.217 27.2363H28.254V26H30.217C30.7991 26 31.3309 26.101 31.8126 26.3029C32.2944 26.5007 32.7098 26.7871 33.0591 27.1621C33.4123 27.5371 33.6833 27.9863 33.8719 28.5096C34.0606 29.033 34.1549 29.6181 34.1549 30.2651V30.7411C34.1549 31.388 34.0606 31.9732 33.8719 32.4966C33.6833 33.0199 33.4123 33.4691 33.0591 33.8441C32.7058 34.215 32.2843 34.5014 31.7946 34.7033C31.3089 34.9011 30.7649 35 30.1628 35ZM29.1271 26V35H27.6158V26H29.1271Z" fill="white"/>
    <path d="M37.9236 26V35H36.4122V26H37.9236ZM41.5002 29.9375V31.1676H37.5382V29.9375H41.5002ZM42 26V27.2363H37.5382V26H42Z" fill="white"/>
    <path d="M32.6191 14.4087V1.89355L45.1646 14.4087H32.6191Z" stroke="white"/>
    <rect x="0.5" y="1.5" width="45" height="58" rx="4.5" stroke="white"/>
</svg>
