<svg width="92" height="64" viewBox="0 0 92 64" fill="none" xmlns="http://www.w3.org/2000/svg">
    <path d="M90.1284 10.0623C89.0712 6.14333 85.9684 3.05113 82.029 1.99604C74.8305 0.0320063 46.0318 3.46971e-05 46.0318 3.46971e-05C46.0318 3.46971e-05 17.2378 -0.0319388 10.0347 1.84531C6.17344 2.89127 2.9833 6.05198 1.91685 9.96634C0.0183946 17.1191 6.7349e-06 31.9543 6.7349e-06 31.9543C6.7349e-06 31.9543 -0.0183802 46.8627 1.86629 53.9423C2.92354 57.8567 6.02634 60.9489 9.97035 62.004C17.2424 63.968 45.9629 64 45.9629 64C45.9629 64 74.7615 64.0319 81.96 62.1593C85.8948 61.1087 89.0114 58.0211 90.0825 54.1067C91.9855 46.9586 91.9993 32.1279 91.9993 32.1279C91.9993 32.1279 92.0913 17.215 90.1284 10.0623ZM36.82 45.698L36.8429 18.2929L60.7782 32.0183L36.82 45.698Z" fill="white"/>
</svg>
