<svg width="323" height="100" viewBox="0 0 323 100" fill="none" xmlns="http://www.w3.org/2000/svg">
    <path d="M128.015 25.6206C128.015 14.6494 136.67 7.27441 147.58 7.27441C150.201 7.27441 153.797 7.70107 156.235 8.73723V13.4914C153.98 12.2114 150.384 11.3581 147.824 11.3581C139.351 11.3581 132.952 17.4532 132.952 25.7425C132.952 34.2756 139.778 40.1269 147.58 40.1269C150.079 40.1269 154.345 39.2126 156.235 38.1155V42.8087C153.675 43.9058 149.591 44.2715 147.58 44.2715C136.304 44.1496 128.015 36.8355 128.015 25.6206Z" fill="black"/>
    <path d="M169.889 25.1932H169.706V43.5394H165.013V7.82227H169.706V24.7056H169.889L186.589 7.82227H192.684L175.496 24.6447L194.452 43.5394H188.235L169.889 25.1932Z" fill="black"/>
    <path d="M224.987 11.9669H211.212V22.5723C211.212 31.9588 210.664 44.1489 201.704 44.1489C200.119 44.1489 198.717 43.966 197.62 43.5394L197.681 39.5167C198.717 39.8824 199.875 40.0043 200.85 40.0043C206.153 40.0043 206.458 28.7893 206.458 20.7438V7.82227H229.68V43.5394H224.987V11.9669Z" fill="black"/>
    <path d="M238.945 25.681C238.945 15.3193 246.198 7.21289 257.291 7.21289C268.689 7.21289 275.699 15.3193 275.699 25.681C275.699 36.5302 268.628 44.149 257.291 44.149C246.32 44.149 238.945 36.5302 238.945 25.681ZM243.882 25.681C243.882 32.9341 248.819 40.0653 257.291 40.0653C266.129 40.0653 270.762 32.9951 270.762 25.681C270.762 18.3059 266.068 11.2966 257.291 11.2966C248.697 11.3575 243.882 18.3059 243.882 25.681Z" fill="black"/>
    <path d="M138.499 82.1205V94.4935H128.747V58.7764H141.851C151.116 58.7764 156.114 62.4334 156.114 70.5399C156.114 77.793 150.872 82.1815 142.095 82.1815H138.499V82.1205ZM138.499 65.5419V75.294H140.632C143.863 75.294 146.484 74.075 146.484 70.357C146.484 66.7 143.802 65.5419 140.632 65.5419H138.499Z" fill="black"/>
    <path d="M160.625 58.7158H184.944V65.6032H170.316V72.8564H183.542V79.7438H170.316V87.6065H185.493V94.4939H160.625V58.7158Z" fill="black"/>
    <path d="M209.507 95.1031C199.694 95.1031 188.905 90.1052 188.905 76.757C188.905 64.384 197.743 58.167 209.446 58.167C212.981 58.167 216.394 58.8984 219.868 59.9346V67.8582C216.882 66.2735 213.286 65.2982 210.177 65.2982C203.473 65.2982 199.023 70.1133 199.023 76.757C199.023 83.7663 203.899 87.9719 210.787 87.9719C213.834 87.9719 217.308 86.9967 219.929 86.0215V93.7622C218.588 94.1279 217.186 94.4936 215.48 94.7374C213.773 94.8593 211.823 95.1031 209.507 95.1031Z" fill="black"/>
    <path d="M228.89 94.4939L234.863 84.498L221.393 58.7158H232.242L239.617 75.4773H239.739L246.87 58.7158H257.597L239.251 94.4329H228.89V94.4939Z" fill="black"/>
    <path d="M270.701 82.1205V94.4935H260.949V58.7764H274.054C283.318 58.7764 288.316 62.4334 288.316 70.5399C288.316 77.793 283.074 82.1815 274.297 82.1815H270.701V82.1205ZM270.64 65.5419V75.294H272.774C276.004 75.294 278.625 74.075 278.625 70.357C278.625 66.7 275.943 65.5419 272.774 65.5419H270.64Z" fill="black"/>
    <path d="M312.088 95.1031C302.275 95.1031 291.486 90.1052 291.486 76.757C291.486 64.384 300.324 58.167 312.027 58.167C315.562 58.167 318.975 58.8984 322.449 59.9346V67.8582C319.463 66.2735 315.867 65.2982 312.758 65.2982C306.054 65.2982 301.604 70.1133 301.604 76.757C301.604 83.7663 306.48 87.9719 313.368 87.9719C316.415 87.9719 319.889 86.9967 322.51 86.0215V93.7622C321.169 94.1279 319.767 94.4936 318.061 94.7374C316.354 94.8593 314.404 95.1031 312.088 95.1031Z" fill="black"/>
    <path d="M3.23922 1.01597L0.396484 2.6748L57.1655 99.9593L60.0082 98.3005L3.23922 1.01597Z" fill="black"/>
    <path d="M9.04004 2.64176L65.7852 99.9191L68.6499 98.2735L11.9047 0.996094L9.04004 2.64176Z" fill="black"/>
    <path d="M20.4873 1.01988L17.6445 2.67871L74.4136 99.9632L77.2563 98.3044L20.4873 1.01988Z" fill="black"/>
    <path d="M29.1396 1.0062L26.2969 2.66504L83.0659 99.9496L85.9086 98.2907L29.1396 1.0062Z" fill="black"/>
    <path d="M34.8818 2.64176L91.6879 99.9191L94.4916 98.2735L37.7465 0.996094L34.8818 2.64176Z" fill="black"/>
    <path d="M46.3896 1.00816L43.5469 2.66699L100.316 99.9515L103.159 98.2927L46.3896 1.00816Z" fill="black"/>
    <path d="M54.9882 1.02476L52.1455 2.68359L108.915 99.9681L111.757 98.3093L54.9882 1.02476Z" fill="black"/>
    <path d="M12.209 89.3744V32.2026L3.06641 16.6602V98.456H50.8518L45.5491 89.3744H12.209Z" fill="black"/>
    <path d="M88.1521 12.8199V48.1104L97.2338 63.7138V3.73828H62.248L67.6117 12.8199H88.1521Z" fill="black"/>
</svg>
