<svg width="66" height="62" viewBox="0 0 66 62" fill="none" xmlns="http://www.w3.org/2000/svg">
    <path d="M64.3818 54.6727C64.3818 54.8555 64.3037 55.1197 63.9791 55.4752C63.6495 55.8362 63.1158 56.2325 62.3446 56.6412C60.8039 57.4577 58.5087 58.2235 55.5882 58.8781C49.7632 60.1837 41.6673 61 32.6909 61C23.7145 61 15.6186 60.1837 9.79366 58.8781C6.87308 58.2235 4.57791 57.4577 3.03725 56.6412C2.26601 56.2325 1.7323 55.8362 1.40268 55.4752C1.07816 55.1197 1 54.8555 1 54.6727C1 54.49 1.07816 54.2257 1.40268 53.8703C1.7323 53.5092 2.26601 53.1129 3.03725 52.7042C4.57791 51.8878 6.87308 51.122 9.79366 50.4674C15.6186 49.1618 23.7145 48.3455 32.6909 48.3455C41.6673 48.3455 49.7632 49.1618 55.5882 50.4674C58.5087 51.122 60.8039 51.8878 62.3446 52.7042C63.1158 53.1129 63.6495 53.5092 63.9791 53.8703C64.3037 54.2257 64.3818 54.49 64.3818 54.6727Z" fill="black" stroke="#fff" stroke-width="2"/>
    <path d="M32.9765 57.9945C50.2467 57.9945 64.247 55.1817 64.247 51.7119C64.247 48.242 50.2467 45.4292 32.9765 45.4292C15.7062 45.4292 1.70593 48.242 1.70593 51.7119C1.70593 55.1817 15.7062 57.9945 32.9765 57.9945Z" fill="black" stroke="#fff" stroke-width="0.8298" stroke-miterlimit="10"/>
    <path d="M28.4073 28.8657H24.552V29.0085H28.4073V28.8657Z" fill="black" stroke="#fff" stroke-width="0.8298" stroke-miterlimit="10"/>
    <path d="M39.6874 28.8657H35.8322V29.0085H39.6874V28.8657Z" fill="black" stroke="#fff" stroke-width="0.8298" stroke-miterlimit="10"/>
    <path d="M64.3818 51.2909C64.3818 51.4736 64.3037 51.7379 63.9791 52.0934C63.6495 52.4544 63.1158 52.8507 62.3446 53.2594C60.8039 54.0758 58.5087 54.8417 55.5882 55.4963C49.7632 56.8019 41.6673 57.6182 32.6909 57.6182C23.7145 57.6182 15.6186 56.8019 9.79366 55.4963C6.87308 54.8417 4.57791 54.0758 3.03725 53.2594C2.26601 52.8507 1.7323 52.4544 1.40268 52.0934C1.07816 51.7379 1 51.4736 1 51.2909C1 51.1082 1.07816 50.8439 1.40268 50.4884C1.7323 50.1274 2.26601 49.7311 3.03725 49.3224C4.57791 48.506 6.87308 47.7401 9.79366 47.0855C15.6186 45.7799 23.7145 44.9636 32.6909 44.9636C41.6673 44.9636 49.7632 45.7799 55.5882 47.0855C58.5087 47.7401 60.8039 48.506 62.3446 49.3224C63.1158 49.7311 63.6495 50.1274 63.9791 50.4884C64.3037 50.8439 64.3818 51.1082 64.3818 51.2909Z" fill="black" stroke="#fff" stroke-width="2"/>
    <rect x="11" y="1" width="21.6727" height="49.8545" fill="black" stroke="#fff" stroke-width="2"/>
    <rect x="33.5455" y="1" width="21.6727" height="49.8545" fill="black" stroke="#fff" stroke-width="2"/>
    <rect x="24.6545" y="27.0544" width="5.63636" height="1.12727" fill="#fff"/>
    <rect x="37.0546" y="27.0544" width="5.63636" height="1.12727" fill="#fff"/>
</svg>
