<svg width="24" height="24" viewBox="0 0 24 24" fill="none" xmlns="http://www.w3.org/2000/svg">
    <path d="M16.8376 0H7.35688C3.50382 0 0.369141 3.13468 0.369141 6.98774V16.4685C0.369141 20.3216 3.50382 23.4562 7.35688 23.4562H16.8376C20.6907 23.4562 23.8254 20.3216 23.8254 16.4685V6.98774C23.8253 3.13468 20.6906 0 16.8376 0ZM21.4657 16.4685C21.4657 19.0245 19.3936 21.0965 16.8376 21.0965H7.35688C4.8009 21.0965 2.72884 19.0245 2.72884 16.4685V6.98774C2.72884 4.43172 4.8009 2.3597 7.35688 2.3597H16.8376C19.3936 2.3597 21.4657 4.43172 21.4657 6.98774V16.4685Z" fill="white"/>
    <path d="M12.0979 5.66211C8.75273 5.66211 6.03125 8.38359 6.03125 11.7287C6.03125 15.0738 8.75273 17.7953 12.0979 17.7953C15.443 17.7953 18.1645 15.0738 18.1645 11.7287C18.1645 8.38354 15.443 5.66211 12.0979 5.66211ZM12.0979 15.4356C10.0506 15.4356 8.39095 13.776 8.39095 11.7287C8.39095 9.68143 10.0506 8.02181 12.0979 8.02181C14.1452 8.02181 15.8048 9.68143 15.8048 11.7287C15.8048 13.776 14.1451 15.4356 12.0979 15.4356Z" fill="white"/>
    <path d="M18.1763 7.16031C18.9792 7.16031 19.63 6.50947 19.63 5.70662C19.63 4.90377 18.9792 4.25293 18.1763 4.25293C17.3735 4.25293 16.7227 4.90377 16.7227 5.70662C16.7227 6.50947 17.3735 7.16031 18.1763 7.16031Z" fill="white"/>
</svg>
