<svg width="174" height="48" viewBox="0 0 174 48" fill="none" xmlns="http://www.w3.org/2000/svg">
    <rect width="22" height="22" fill="white"/>
    <rect y="26" width="22" height="22" fill="white"/>
    <path d="M27 0V22H37.5L53.5 0H27Z" fill="white"/>
    <path d="M27 48V26H37.5L53.5 48H27Z" fill="white"/>
    <path d="M71.8002 19L67.4402 12.26L70.0602 10.68L75.4802 19H71.8002ZM62.7002 19V5.00002H65.9202V19H62.7002ZM64.9802 13.36V10.66H69.8602V13.36H64.9802ZM70.3602 12.36L67.3802 12L71.9202 5.00002H75.3402L70.3602 12.36Z" fill="white"/>
    <path d="M83.6394 19.24C82.5327 19.24 81.506 19.06 80.5594 18.7C79.626 18.34 78.8127 17.8334 78.1194 17.18C77.4394 16.5267 76.906 15.76 76.5194 14.88C76.146 14 75.9594 13.04 75.9594 12C75.9594 10.96 76.146 10 76.5194 9.12002C76.906 8.24002 77.446 7.47336 78.1394 6.82002C78.8327 6.16669 79.646 5.66002 80.5794 5.30002C81.5127 4.94002 82.526 4.76002 83.6194 4.76002C84.726 4.76002 85.7394 4.94002 86.6594 5.30002C87.5927 5.66002 88.3994 6.16669 89.0794 6.82002C89.7727 7.47336 90.3127 8.24002 90.6994 9.12002C91.086 9.98669 91.2794 10.9467 91.2794 12C91.2794 13.04 91.086 14.0067 90.6994 14.9C90.3127 15.78 89.7727 16.5467 89.0794 17.2C88.3994 17.84 87.5927 18.34 86.6594 18.7C85.7394 19.06 84.7327 19.24 83.6394 19.24ZM83.6194 16.48C84.246 16.48 84.8194 16.3734 85.3394 16.16C85.8727 15.9467 86.3394 15.64 86.7394 15.24C87.1394 14.84 87.446 14.3667 87.6594 13.82C87.886 13.2734 87.9994 12.6667 87.9994 12C87.9994 11.3334 87.886 10.7267 87.6594 10.18C87.446 9.63336 87.1394 9.16002 86.7394 8.76002C86.3527 8.36002 85.8927 8.05336 85.3594 7.84002C84.826 7.62669 84.246 7.52002 83.6194 7.52002C82.9927 7.52002 82.4127 7.62669 81.8794 7.84002C81.3594 8.05336 80.8994 8.36002 80.4994 8.76002C80.0994 9.16002 79.786 9.63336 79.5594 10.18C79.346 10.7267 79.2394 11.3334 79.2394 12C79.2394 12.6534 79.346 13.26 79.5594 13.82C79.786 14.3667 80.0927 14.84 80.4794 15.24C80.8794 15.64 81.346 15.9467 81.8794 16.16C82.4127 16.3734 82.9927 16.48 83.6194 16.48Z" fill="white"/>
    <path d="M93.7753 19V5.00002H96.4553L102.415 14.88H100.995L106.855 5.00002H109.535L109.555 19H106.515L106.495 9.66002H107.075L102.375 17.52H100.935L96.1353 9.66002H96.8153V19H93.7753Z" fill="white"/>
    <path d="M120.433 18.12C118.62 18.12 117.08 17.88 115.813 17.4C114.56 16.92 113.606 16.2267 112.953 15.32C112.3 14.4 111.973 13.28 111.973 11.96C111.973 10.64 112.3 9.52669 112.953 8.62002C113.606 7.70002 114.56 7.00002 115.813 6.52002C117.08 6.04002 118.62 5.80002 120.433 5.80002C120.46 5.80002 120.533 5.80002 120.653 5.80002C120.786 5.80002 120.913 5.80002 121.033 5.80002C121.166 5.80002 121.24 5.80002 121.253 5.80002C123.053 5.80002 124.573 6.04002 125.813 6.52002C127.066 7.00002 128.013 7.70002 128.653 8.62002C129.293 9.54002 129.613 10.6534 129.613 11.96C129.613 13.2534 129.293 14.3667 128.653 15.3C128.026 16.22 127.1 16.92 125.873 17.4C124.66 17.88 123.173 18.12 121.413 18.12C121.373 18.12 121.28 18.12 121.133 18.12C120.986 18.12 120.84 18.12 120.693 18.12C120.56 18.12 120.473 18.12 120.433 18.12ZM120.733 15.62C120.773 15.62 120.826 15.62 120.893 15.62C120.96 15.62 121.006 15.62 121.033 15.62C122.26 15.62 123.273 15.4867 124.073 15.22C124.886 14.94 125.493 14.5334 125.893 14C126.293 13.4534 126.493 12.7667 126.493 11.94C126.493 11.1134 126.286 10.4334 125.873 9.90002C125.46 9.36669 124.853 8.97336 124.053 8.72003C123.266 8.45336 122.273 8.32002 121.073 8.32002C121.046 8.32002 120.993 8.32002 120.913 8.32002C120.846 8.32002 120.786 8.32002 120.733 8.32002C119.466 8.32002 118.42 8.44669 117.593 8.70002C116.766 8.95336 116.146 9.35336 115.733 9.90002C115.32 10.4334 115.113 11.12 115.113 11.96C115.113 12.8 115.333 13.4934 115.773 14.04C116.213 14.5734 116.846 14.9734 117.673 15.24C118.513 15.4934 119.533 15.62 120.733 15.62ZM119.313 19.62V4.40002H122.293V19.62H119.313Z" fill="white"/>
    <path d="M138.737 19.24C137.63 19.24 136.604 19.06 135.657 18.7C134.724 18.34 133.91 17.8334 133.217 17.18C132.537 16.5267 132.004 15.76 131.617 14.88C131.244 14 131.057 13.04 131.057 12C131.057 10.96 131.244 10 131.617 9.12002C132.004 8.24002 132.544 7.47336 133.237 6.82002C133.93 6.16669 134.744 5.66002 135.677 5.30002C136.61 4.94002 137.624 4.76002 138.717 4.76002C139.824 4.76002 140.837 4.94002 141.757 5.30002C142.69 5.66002 143.497 6.16669 144.177 6.82002C144.87 7.47336 145.41 8.24002 145.797 9.12002C146.184 9.98669 146.377 10.9467 146.377 12C146.377 13.04 146.184 14.0067 145.797 14.9C145.41 15.78 144.87 16.5467 144.177 17.2C143.497 17.84 142.69 18.34 141.757 18.7C140.837 19.06 139.83 19.24 138.737 19.24ZM138.717 16.48C139.344 16.48 139.917 16.3734 140.437 16.16C140.97 15.9467 141.437 15.64 141.837 15.24C142.237 14.84 142.544 14.3667 142.757 13.82C142.984 13.2734 143.097 12.6667 143.097 12C143.097 11.3334 142.984 10.7267 142.757 10.18C142.544 9.63336 142.237 9.16002 141.837 8.76002C141.45 8.36002 140.99 8.05336 140.457 7.84002C139.924 7.62669 139.344 7.52002 138.717 7.52002C138.09 7.52002 137.51 7.62669 136.977 7.84002C136.457 8.05336 135.997 8.36002 135.597 8.76002C135.197 9.16002 134.884 9.63336 134.657 10.18C134.444 10.7267 134.337 11.3334 134.337 12C134.337 12.6534 134.444 13.26 134.657 13.82C134.884 14.3667 135.19 14.84 135.577 15.24C135.977 15.64 136.444 15.9467 136.977 16.16C137.51 16.3734 138.09 16.48 138.717 16.48Z" fill="white"/>
    <path d="M148.873 19V5.00002H154.933C156.186 5.00002 157.266 5.20669 158.173 5.62002C159.08 6.02002 159.78 6.60002 160.273 7.36002C160.766 8.12002 161.013 9.02669 161.013 10.08C161.013 11.12 160.766 12.02 160.273 12.78C159.78 13.54 159.08 14.1267 158.173 14.54C157.266 14.94 156.186 15.14 154.933 15.14H150.673L152.113 13.68V19H148.873ZM152.113 14.04L150.673 12.5H154.753C155.753 12.5 156.5 12.2867 156.993 11.86C157.486 11.4334 157.733 10.84 157.733 10.08C157.733 9.30669 157.486 8.70669 156.993 8.28002C156.5 7.85336 155.753 7.64002 154.753 7.64002H150.673L152.113 6.10002V14.04Z" fill="white"/>
    <path d="M165.799 19V6.90002L166.539 7.64002H161.339V5.00002H173.479V7.64002H168.279L168.999 6.90002V19H165.799Z" fill="white"/>
    <path d="M62.6602 43V29H65.9002V40.36H72.9202V43H62.6602Z" fill="white"/>
    <path d="M74.7305 43V29H77.9705V43H74.7305Z" fill="white"/>
    <path d="M81.293 43V29H83.973L92.233 39.08H90.933V29H94.133V43H91.473L83.193 32.92H84.493V43H81.293Z" fill="white"/>
    <path d="M100.425 34.64H107.165V37.16H100.425V34.64ZM100.665 40.4H108.285V43H97.4453V29H108.025V31.6H100.665V40.4Z" fill="white"/>
    <path d="M122.819 32C123.426 32 123.953 32.1 124.399 32.3C124.853 32.5 125.199 32.7867 125.439 33.16C125.679 33.5334 125.799 33.9767 125.799 34.49C125.799 34.9967 125.679 35.44 125.439 35.82C125.199 36.1934 124.853 36.48 124.399 36.68C123.953 36.88 123.426 36.98 122.819 36.98H121.239V39H119.939V32H122.819ZM122.759 35.88C123.326 35.88 123.756 35.76 124.049 35.52C124.343 35.28 124.489 34.9367 124.489 34.49C124.489 34.0434 124.343 33.7 124.049 33.46C123.756 33.22 123.326 33.1 122.759 33.1H121.239V35.88H122.759Z" fill="white"/>
    <path d="M134.098 32H135.398V37.9H139.058V39H134.098V32Z" fill="white"/>
    <path d="M149.996 39.1C149.03 39.1 148.276 38.83 147.736 38.29C147.196 37.7434 146.926 36.9634 146.926 35.95V32H148.226V35.9C148.226 37.2734 148.82 37.96 150.006 37.96C151.186 37.96 151.776 37.2734 151.776 35.9V32H153.056V35.95C153.056 36.9634 152.786 37.7434 152.246 38.29C151.713 38.83 150.963 39.1 149.996 39.1Z" fill="white"/>
    <path d="M164.047 39.1C163.507 39.1 162.984 39.0234 162.477 38.87C161.977 38.7167 161.58 38.5134 161.287 38.26L161.737 37.25C162.024 37.4767 162.374 37.6634 162.787 37.81C163.207 37.95 163.627 38.02 164.047 38.02C164.567 38.02 164.954 37.9367 165.207 37.77C165.467 37.6034 165.597 37.3834 165.597 37.11C165.597 36.91 165.524 36.7467 165.377 36.62C165.237 36.4867 165.057 36.3834 164.837 36.31C164.617 36.2367 164.317 36.1534 163.937 36.06C163.404 35.9334 162.97 35.8067 162.637 35.68C162.31 35.5534 162.027 35.3567 161.787 35.09C161.554 34.8167 161.437 34.45 161.437 33.99C161.437 33.6034 161.54 33.2534 161.747 32.94C161.96 32.62 162.277 32.3667 162.697 32.18C163.124 31.9934 163.644 31.9 164.257 31.9C164.684 31.9 165.104 31.9534 165.517 32.06C165.93 32.1667 166.287 32.32 166.587 32.52L166.177 33.53C165.87 33.35 165.55 33.2134 165.217 33.12C164.884 33.0267 164.56 32.98 164.247 32.98C163.734 32.98 163.35 33.0667 163.097 33.24C162.85 33.4134 162.727 33.6434 162.727 33.93C162.727 34.13 162.797 34.2934 162.937 34.42C163.084 34.5467 163.267 34.6467 163.487 34.72C163.707 34.7934 164.007 34.8767 164.387 34.97C164.907 35.09 165.334 35.2167 165.667 35.35C166 35.4767 166.284 35.6734 166.517 35.94C166.757 36.2067 166.877 36.5667 166.877 37.02C166.877 37.4067 166.77 37.7567 166.557 38.07C166.35 38.3834 166.034 38.6334 165.607 38.82C165.18 39.0067 164.66 39.1 164.047 39.1Z" fill="white"/>
</svg>
